<svg xmlns="http://www.w3.org/2000/svg" viewBox="0 0 76.74 102.51"><title>CatAmHati</title><path d="M60.12,4.55c6.8.73,11.05,7.54,11.9,15.19s-.67,31.56-10,49.09c-8.63,16.28-19.8,26.25-32.44,28.79S2,89.85,4.83,80.13s10.09-13,20-22.84c6.27-6.19,14.7-19.81,21.75-36.7C50.42,11.52,53.31,3.83,60.12,4.55Z" fill="#fff4e3"/><path d="M25.65,102.51A29.28,29.28,0,0,1,4.76,93.62C.65,89.16-.9,83.79.51,78.89,2.86,70.71,8,66.28,14,61.14c2.33-2,5-4.29,7.77-7,6.26-6.19,14.41-20,20.76-35.23l.45-1.09C46.76,8.55,50.71-1,60.6.08h0c8.33.89,14.72,8.6,15.9,19.17,1,9.21-1,33.82-10.46,51.69C56.75,88.47,44.46,99.22,30.51,102A25.26,25.26,0,0,1,25.65,102.51ZM59.36,9c-2.83,0-5,4.66-8.12,12.21l-.46,1.11C43.91,38.8,35.19,53.42,28,60.49c-3,3-5.77,5.36-8.21,7.46-5.65,4.88-9.06,7.83-10.67,13.43-.71,2.47,1.08,4.9,2.22,6.13,3.47,3.76,10.72,7,17.35,5.7C40,91,50.1,81.79,58.08,66.72c9.12-17.2,10.14-40.42,9.47-46.48C67,15,64.3,9.53,59.64,9Z" fill="#71695d"/><path d="M54.7,77.67c-9.31,3.64-49.45-5.51-36.81-14.08,13.3-9,24.26-29.9,31.81-50.45,3.6-9.78,18.61-12.23,22.23,4C76.1,35.8,64,74,54.7,77.67Z" fill="#978f83"/><path d="M25.65,102.51A29.28,29.28,0,0,1,4.76,93.62C.65,89.16-.9,83.79.51,78.89,2.86,70.71,8,66.28,14,61.14c2.33-2,5-4.29,7.77-7,6.26-6.19,14.41-20,20.76-35.23l.45-1.09C46.76,8.55,50.71-1,60.6.08h0c8.33.89,14.72,8.6,15.9,19.17,1,9.21-1,33.82-10.46,51.69C56.75,88.47,44.46,99.22,30.51,102A25.26,25.26,0,0,1,25.65,102.51ZM59.36,9c-2.83,0-5,4.66-8.12,12.21l-.46,1.11C43.91,38.8,35.19,53.42,28,60.49c-3,3-5.77,5.36-8.21,7.46-5.65,4.88-9.06,7.83-10.67,13.43-.71,2.47,1.08,4.9,2.22,6.13,3.47,3.76,10.72,7,17.35,5.7C40,91,50.1,81.79,58.08,66.72c9.12-17.2,10.14-40.42,9.47-46.48C67,15,64.3,9.53,59.64,9Z" fill="#71695d"/></svg>