<svg xmlns="http://www.w3.org/2000/svg" viewBox="0 0 76.74 102.51"><title>CatAmTora</title><path d="M60.12,4.56c6.8.72,11.05,7.53,11.9,15.19s-.67,31.56-10,49.08c-8.63,16.28-19.8,26.25-32.44,28.79S2,89.85,4.83,80.13s10.09-13,20-22.85c6.27-6.18,14.7-19.8,21.75-36.68C50.42,11.52,53.31,3.82,60.12,4.56Z" fill="#fff4e3"/><path d="M25.65,102.51a29.21,29.21,0,0,1-20.88-8.9C.65,89.16-.9,83.79.51,78.89,2.86,70.72,8,66.29,13.94,61.15c2.33-2,5-4.3,7.78-7.07,6.26-6.18,14.41-20,20.76-35.22l.46-1.1C46.77,8.55,50.74-1,60.59.08h0C68.93,1,75.32,8.68,76.5,19.25c1,9.21-1,33.82-10.46,51.69C56.75,88.47,44.46,99.22,30.51,102A24.5,24.5,0,0,1,25.65,102.51ZM59.35,9c-2.82,0-5,4.65-8.1,12.19l-.47,1.12C43.91,38.8,35.2,53.42,28,60.49c-3,3-5.78,5.37-8.22,7.47-5.65,4.88-9,7.82-10.66,13.42-.71,2.47,1.09,4.9,2.22,6.13,3.47,3.76,10.72,7,17.35,5.7C40,91,50.1,81.79,58.09,66.72c9.11-17.2,10.14-40.41,9.46-46.48C67,15,64.3,9.53,59.64,9h-.29Z" fill="#71695d"/><path d="M54.7,77.68c-9.31,3.63-49.45-5.53-36.81-14.09,13.3-9,24.26-29.9,31.81-50.45,3.6-9.78,18.61-12.23,22.23,4C76.1,35.8,64,74,54.7,77.68Z" fill="#f0dda6"/><path d="M25.65,102.51a29.21,29.21,0,0,1-20.88-8.9C.65,89.16-.9,83.79.51,78.89,2.86,70.72,8,66.29,13.94,61.15c2.33-2,5-4.3,7.78-7.07,6.26-6.18,14.41-20,20.76-35.22l.46-1.1C46.77,8.55,50.74-1,60.59.08h0C68.93,1,75.32,8.68,76.5,19.25c1,9.21-1,33.82-10.46,51.69C56.75,88.47,44.46,99.22,30.51,102A24.5,24.5,0,0,1,25.65,102.51ZM59.35,9c-2.82,0-5,4.65-8.1,12.19l-.47,1.12C43.91,38.8,35.2,53.42,28,60.49c-3,3-5.78,5.37-8.22,7.47-5.65,4.88-9,7.82-10.66,13.42-.71,2.47,1.09,4.9,2.22,6.13,3.47,3.76,10.72,7,17.35,5.7C40,91,50.1,81.79,58.09,66.72c9.11-17.2,10.14-40.41,9.46-46.48C67,15,64.3,9.53,59.64,9h-.29Z" fill="#71695d"/></svg>