<svg xmlns="http://www.w3.org/2000/svg" viewBox="0 0 209.91 121.48"><title>CatBdHati</title><path d="M106.19,7.45c27.41.46,50.69-6.68,68.2-.23s29.72,27.42,30.87,47.93-4.15,47.46-24.19,54.83-53,7.15-76.27,6.92-60.13,2.3-75.34-9.45S.2,70.12,5.73,46.62s21-35.48,40.32-38.71C58.87,5.77,86.37,7.12,106.19,7.45Z" fill="#fff4e3"/><path d="M157.28,6.25c-2.77,21.6-25,59-53.1,69.82s-70.57,0-75.26-27S31.59,10.17,44.05,7.44c12.88-2.83,54.68,1.42,63.53.44S140.71,7.1,157.28,6.25Z" fill="#978f83"/><path d="M117.92,121.48c-4.67,0-9.1,0-13.16-.08-3.64,0-7.63,0-11.85,0-23.24.19-52.17.42-66.2-10.42C10,98.09-4.58,70.78,1.35,45.59c5.49-23.35,21.1-38.31,44-42.12,10.58-1.76,30.37-1.26,47.84-.82,4.57.12,9,.23,13.11.3h0a257.54,257.54,0,0,0,28.86-1.58c15.56-1.46,29-2.73,40.82,1.63,18.28,6.73,32.5,28.56,33.82,51.89.68,12.22-.88,24.34-4.41,34.13-4.58,12.69-12.44,21.4-22.73,25.19C165.34,120.57,139.23,121.48,117.92,121.48Zm-16.64-9.1,3.57,0c22,.22,55.14.54,74.67-6.64,17.41-6.41,22.33-31.13,21.25-50.36-1.12-19.92-12.87-38.4-27.94-44C162.93,7.79,150.43,9,136,10.33A268.51,268.51,0,0,1,106.11,12c-4.13-.07-8.6-.18-13.19-.3-17.06-.43-36.4-.92-46.13.7-19.32,3.22-32,15.43-36.68,35.3-4.88,20.74,7.4,44.88,22.1,56.24,11.57,8.94,39.92,8.71,60.62,8.54Q97.24,112.39,101.28,112.38Z" fill="#71695d"/></svg>