<svg xmlns="http://www.w3.org/2000/svg" viewBox="0 0 209.91 121.48"><title>CatBdTora</title><path d="M106.19,7.45c27.42.46,50.69-6.68,68.2-.23s29.72,27.42,30.87,47.92-4.14,47.47-24.19,54.84-53,7.15-76.27,6.91-60.13,2.31-75.34-9.44S.2,70.12,5.73,46.62s21-35.48,40.32-38.71C58.88,5.77,86.37,7.12,106.19,7.45Z" fill="#f0dda6"/><path d="M118,121.48c-4.7,0-9.16,0-13.25-.09-3.64,0-7.62,0-11.84,0-23.25.19-52.18.43-66.21-10.42C10,98.09-4.58,70.77,1.35,45.59c5.49-23.35,21.1-38.31,44-42.12C55.9,1.71,75.7,2.21,93.16,2.65c4.57.12,9,.23,13.1.3h0a259.67,259.67,0,0,0,28.86-1.58c15.56-1.46,29-2.73,40.82,1.63,18.28,6.73,32.5,28.56,33.82,51.89.68,12.22-.88,24.34-4.41,34.12-4.58,12.7-12.44,21.41-22.73,25.2C165.35,120.56,139.29,121.48,118,121.48Zm-16.68-9.1h3.52c22,.23,55.12.56,74.67-6.63,17.41-6.41,22.33-31.13,21.25-50.37C199.65,35.48,187.9,17,172.83,11.44,162.93,7.8,150.43,9,136,10.33A268.51,268.51,0,0,1,106.11,12c-4.13-.07-8.59-.18-13.18-.3-17.06-.43-36.4-.92-46.14.7-19.32,3.22-32,15.43-36.68,35.3-4.88,20.74,7.4,44.88,22.1,56.24,11.57,8.94,39.93,8.71,60.64,8.54C95.79,112.4,98.63,112.38,101.33,112.38Z" fill="#71695d"/><path d="M91.48,8.41c0,11.25-4.23,26.27-10.38,38.88S86,68.4,94.2,48.57,105.35,15,104.2,8.74C104.2,8.74,92.43,8.22,91.48,8.41Z" fill="#cbaa65"/><path d="M123.81,8.54c0,8-3.15,30-6.72,38.15-7.36,16.9,4.21,21.46,10.33,6.08,5.8-14.61,7-26.22,7.4-44.23C134.82,8.54,126,7.34,123.81,8.54Z" fill="#cbaa65"/><path d="M154.63,6.14c.2,7.81-.68,30-6.72,40.75-9.15,16.3.79,25.85,11.73,1.68,7.58-16.77,7-36.22,5-42.63C164.64,5.94,155.83,5.34,154.63,6.14Z" fill="#cbaa65"/><path d="M118,121.48c-4.7,0-9.16,0-13.25-.09-3.64,0-7.62,0-11.84,0-23.25.19-52.18.43-66.21-10.42C10,98.09-4.58,70.77,1.35,45.59c5.49-23.35,21.1-38.31,44-42.12C55.9,1.71,75.7,2.21,93.16,2.65c4.57.12,9,.23,13.1.3h0a259.67,259.67,0,0,0,28.86-1.58c15.56-1.46,29-2.73,40.82,1.63,18.28,6.73,32.5,28.56,33.82,51.89.68,12.22-.88,24.34-4.41,34.12-4.58,12.7-12.44,21.41-22.73,25.2C165.35,120.56,139.29,121.48,118,121.48Zm-16.68-9.1h3.52c22,.23,55.12.56,74.67-6.63,17.41-6.41,22.33-31.13,21.25-50.37C199.65,35.48,187.9,17,172.83,11.44,162.93,7.8,150.43,9,136,10.33A268.51,268.51,0,0,1,106.11,12c-4.13-.07-8.59-.18-13.18-.3-17.06-.43-36.4-.92-46.14.7-19.32,3.22-32,15.43-36.68,35.3-4.88,20.74,7.4,44.88,22.1,56.24,11.57,8.94,39.93,8.71,60.64,8.54C95.79,112.4,98.63,112.38,101.33,112.38Z" fill="#71695d"/></svg>