<svg xmlns="http://www.w3.org/2000/svg" viewBox="0 0 160.38 200.05"><title>CatHdHati</title><path d="M68.77,55.94c.77-7.11-25.16-32.6-32.1-29.89s-6.5,43.27-4.17,57.44S47.12,73.19,55,68,68,63,68.77,55.94Z" fill="#978f83"/><path d="M35.38,92.38a6.37,6.37,0,0,1-1.66-.22c-3-.78-4.93-3.45-5.67-7.93-1.29-7.84-1.9-22.11-1.45-33.93.85-22.51,4.74-27,8.43-28.45,3.91-1.53,9.13.35,16.4,5.92S74.15,48.16,73.26,56.42c-.79,7.38-5.42,9.71-9.89,12a52.15,52.15,0,0,0-5.9,3.32c-2.1,1.4-5.26,5.39-8,8.9C44.29,87.1,40.12,92.38,35.38,92.38ZM38.5,30.49C35.58,36,34.17,64.26,36.78,81.67c1.77-1.85,4-4.7,5.58-6.66,3.51-4.43,6.82-8.61,10.11-10.81a61.3,61.3,0,0,1,6.84-3.87c4.08-2.06,4.7-2.49,5-4.72C64,54,60.46,48.26,52.88,40.94,45.7,34,40.53,31.1,38.5,30.49Z" fill="#71695d"/><path d="M78.62,43.62c-14,.52-25.46,6.64-38.3,21.84C34.16,72.77,16.38,90.85,8,117.72c-7.39,23.76-3.15,49.92,12.61,60.43s46.42,21.2,78.13,16.12,63.24-35.21,56.05-67.1-19.77-67-38.53-77.25C102.8,42.57,92.64,43.09,78.62,43.62Z" fill="#fff4e3"/><path d="M53.78,52.17c-2.42,23.91,32.65,76.56,64.08,72.26s32.24-4.84,32-11.55-9.13-28.21-9.13-28.21-6.18-18.27-15.85-25.25S89.39,41.68,77.3,43.56,64.16,46.06,53.78,52.17Z" fill="#978f83"/><path d="M82.34,200.05c-25.39,0-49.52-8.36-64.2-18.15C1.44,170.77-4.62,143.21,3.72,116.38c7.71-24.77,23.26-42.51,30.74-51l2.42-2.78C50.25,46.71,62.69,39.7,78.46,39.11h0l.74,0c13.92-.52,24.91-.94,39.25,6.88,11.81,6.45,28.47,25.59,40.77,80.22,3,13.45.06,27.31-8.59,40.09-11.36,16.78-31,29.21-51.15,32.45A109,109,0,0,1,82.34,200.05ZM78.79,48.12c-13.15.5-23.29,6.36-35,20.25-.71.84-1.56,1.81-2.53,2.92C33.63,80,19.47,96.11,12.34,119.05c-7.07,22.73-2.43,46.53,10.8,55.35,16.51,11,46.07,20,74.91,15.41,17.55-2.81,35.25-14,45.12-28.6,5-7.43,10.37-19.2,7.25-33-8.89-39.48-22.12-66.55-36.29-74.29C102,47.25,93.05,47.59,79.54,48.1Z" fill="#71695d"/><path d="M79.18,49.39c-1.71-5.25,9-44.75,14.71-44.88s5,58.45-.42,65.15-5.41-10.21-7.13-13.08S80.9,54.65,79.18,49.39Z" fill="#f0e0dc"/><path d="M91.26,75.74a5.79,5.79,0,0,1-1.5-.2c-4.64-1.22-5.58-6.83-6.58-12.78-.21-1.27-.53-3.15-.76-3.9a10.82,10.82,0,0,0-1-.55,12.08,12.08,0,0,1-6.54-7.52c-2.29-7,7-38.72,12.75-46.82.68-1,2.76-3.89,6.14-4,1.1,0,3.8.3,5.5,3.77,3.4,6.93,3.15,28.5,3,34.94C102,51.52,100.79,67.77,97,72.5,94.93,75,92.9,75.74,91.26,75.74Zm-7.74-27.6c.44,1.29.87,1.52,2.16,2.2a10.55,10.55,0,0,1,4.53,3.92,15.15,15.15,0,0,1,1.53,5,187.27,187.27,0,0,0,1.55-21.93A179.23,179.23,0,0,0,92.49,14a117.73,117.73,0,0,0-4.83,13.78C84.6,38.24,83.3,46.24,83.52,48.14Zm0-.15h0Z" fill="#71695d"/><path d="M134.2,92.17C132.67,96.42,120,84.4,113.57,81s-26.82-5.87-23-9.58,7.48-36.8,6-46.69S94.16,5,94.16,5C113.71,6.66,144.83,62.8,134.2,92.17Z" fill="#978f83"/><path d="M132.86,97.58c-3.61,0-7.8-3-14.24-7.7a75.27,75.27,0,0,0-7.19-4.95c-2-1.05-6.38-2.2-10.28-3.22-8.87-2.31-14.23-3.71-15.36-8a5.55,5.55,0,0,1,1.52-5.37c2.62-4.2,6.28-33.26,4.82-42.93-1.5-9.89-2.42-19.52-2.46-19.92A4.5,4.5,0,0,1,94.53.53c4.14.34,15.19,3.39,28.52,24.19a121.59,121.59,0,0,1,15.13,34.39c3.48,13.49,3.57,25.45.26,34.6h0a5.76,5.76,0,0,1-3.76,3.61A6.26,6.26,0,0,1,132.86,97.58Zm-2.9-7h0Zm-34-19.76c2.14.72,5.2,1.52,7.49,2.11,4.81,1.26,9.36,2.44,12.27,4A76.59,76.59,0,0,1,124,82.62c2,1.44,4.8,3.55,6.9,4.84,2.82-12.65-.68-34.88-15.42-57.87-5.3-8.27-11.1-14.63-16-17.82.41,3.49,1,7.88,1.62,12.25C102.23,31.83,100.35,59.81,95.94,70.87Z" fill="#71695d"/><path d="M85.23,137.54c-1.7-3-8.24,2.54-15.77,4.92s-7.67,2.31-10.59,2.31-2.45,3.77,2.24,5.57,22.23,8.42,22.62,4.19,1-5.69-3.77-5.37-12.68-.74-16.38-1.44C68.29,145.63,87.81,142.18,85.23,137.54Z" fill="#71695d" stroke="#71695d" stroke-linejoin="round" stroke-width="1.88"/><path d="M9.62,162.46l7.6,1.43,10.2-1-.29,4-4.88,9.76-10-6.75Z" fill="#e47b7b" stroke="#71695d" stroke-linejoin="round" stroke-width="1.88"/><path d="M38.21,158.27c-1.94-3.27-11,5.44-17.43,4.16S7,158.28,6.05,155.25s.64,4.64,3.5,6.39c4.7,2.88,7.71,5.27,14.27,3.83S40.29,161.79,38.21,158.27Z" fill="#71695d" stroke="#71695d" stroke-linejoin="round" stroke-width="1.88"/><path d="M26.58,164.61c-.33,4.27-2.46,12.86-6.93,12.61.36.12,2.52,1.44,2.52,1.44,4.62-4.13,7.55-8.7,7-12.15S26.91,160.33,26.58,164.61Z" fill="#71695d" stroke="#71695d" stroke-linejoin="round" stroke-width="1.88"/><path d="M95.07,162.05c-1,.08-1.75,1.25-2.52,2.75-2-1.48-3.17-1.9-4-.35s.32,2.66,2.23,4a20.38,20.38,0,0,1-2.4,3.82l0,.06c-2.13-1.64-3.37-2.11-4.25-.5-.73,1.32.13,2.44,1.71,3.6-1.85,2.36-2.4,3.66-.69,4.58,1.51.81,2.76-.43,4.07-2.49l1.33.75c.84.47,1.72,1.05,2.62,1.62-1.81,2.32-2.35,3.61-.66,4.52,1.5.81,2.74-.4,4-2.42,2.37,1.4,4.39,2.27,5.1,1.05a1.92,1.92,0,0,0,.31-1.11c-.08-1.19-1.6-2-3.58-3,.18-.34.35-.63.54-1,.59-1.08,1.31-2.22,2-3.37,2.39,1.43,4.44,2.36,5.15,1.14a2,2,0,0,0,.31-1.12c-.08-1.2-1.62-2.06-3.64-3,1.27-2.22,2-4.08.83-4.75a2,2,0,0,0-1.11-.29c-1.15.09-2,1.55-2.91,3.45a19.64,19.64,0,0,1-3.29-2.16c-.33-.28-.56-.45-.86-.71,1.25-2.21,2-4.05.8-4.71A1.83,1.83,0,0,0,95.07,162.05Zm-1.52,8.06,1.4.79c1,.56,2.08,1.25,3.16,1.94a20.11,20.11,0,0,1-2.39,3.79l-.55.67a19,19,0,0,1-3.39-2.19l-.81-.67c.18-.33.34-.61.52-.95C92.09,172.41,92.82,171.27,93.55,170.11Z" fill="#e47b7b"/></svg>