<svg xmlns="http://www.w3.org/2000/svg" viewBox="0 0 160.38 200.05"><title>CatHdTora</title><path d="M68.78,55.93c.76-7.1-25.17-32.59-32.11-29.88s-6.5,43.27-4.17,57.44S47.12,73.19,55,68,68,63,68.78,55.93Z" fill="#f0dda6"/><path d="M35.38,92.37a6.81,6.81,0,0,1-1.66-.21c-3-.79-4.93-3.46-5.67-7.94-1.29-7.84-1.9-22.1-1.45-33.92.85-22.51,4.74-27,8.43-28.46,3.92-1.52,9.13.36,16.41,5.94S74.15,48.16,73.26,56.42c-.79,7.38-5.42,9.71-9.89,12a51.68,51.68,0,0,0-5.9,3.33c-2.1,1.4-5.26,5.38-8,8.9C44.29,87.1,40.12,92.37,35.38,92.37Zm3.13-61.89C35.58,36,34.16,64.26,36.78,81.67c1.77-1.85,4-4.7,5.58-6.66,3.51-4.43,6.82-8.62,10.11-10.81a61.61,61.61,0,0,1,6.85-3.88c4.08-2,4.69-2.49,4.95-4.71C64,54,60.47,48.26,52.88,40.94,45.7,34,40.53,31.1,38.51,30.48Z" fill="#71695d"/><path d="M78.62,43.62c-14,.52-25.46,6.64-38.3,21.84C34.16,72.77,16.38,90.85,8,117.72c-7.39,23.75-3.15,49.92,12.61,60.43s46.42,21.19,78.13,16.11,63.24-35.21,56.05-67.09-19.77-67-38.53-77.25C102.8,42.57,92.64,43.09,78.62,43.62Z" fill="#f0dda6"/><path d="M82.34,200.05c-25.38,0-49.51-8.36-64.2-18.15C1.44,170.77-4.62,143.21,3.72,116.38,11.43,91.6,27,73.87,34.46,65.34c.93-1.06,1.74-2,2.42-2.79C50.25,46.71,62.69,39.7,78.46,39.11l.71,0c13.93-.52,24.93-.94,39.28,6.88,11.81,6.44,28.47,25.59,40.77,80.22,3,13.45.06,27.31-8.59,40.09-11.36,16.78-31,29.21-51.15,32.45A109,109,0,0,1,82.34,200.05Zm6.58-152.2c-2.93,0-6,.12-9.41.25l-.72,0h0c-13.15.5-23.29,6.36-35,20.25-.7.84-1.56,1.81-2.53,2.92C33.63,80,19.47,96.11,12.34,119.05c-7.07,22.73-2.43,46.53,10.8,55.35,16.51,11,46.07,20,74.92,15.41,17.53-2.81,35.24-14,45.1-28.6,5-7.43,10.38-19.2,7.26-33.05-8.89-39.48-22.12-66.55-36.29-74.28C105,48.91,97.7,47.85,88.92,47.85Z" fill="#71695d"/><path d="M77.45,44.14l-7.63.63a178.22,178.22,0,0,0-13.2,13.3c-2.9-.29-5.41-.11-7,.82C43.24,62.59,45.4,63,48,62.7a19.18,19.18,0,0,1,4.15.62c-2.2,2.76-4.08,5.38-5.73,7.9-3.38-1-6.15-1.35-7.08-.61-3.18,2.54-3.31,4.57.25,5.07.75.12,2.08.46,3.48.84-5.5,9.2-8,14.29-8.83,19.15-.82,5.09,2,9,6.24,0a133.28,133.28,0,0,1,9.84-16.94,88.9,88.9,0,0,1,10.52,4.09c5,2.55,8.78,1.65,7.12-1.4-.85-1.58-7.61-5.08-14.39-7.75l.27-.4c1.31-2,3.45-4.82,5.91-7.93a89.43,89.43,0,0,1,13,4.75c6.87,3.43,8.79-.39,6.25-3.69-1.37-1.78-7.91-4.82-14.66-6.74C70.8,51.81,77.45,44.14,77.45,44.14Z" fill="#cbaa65"/><path d="M82.34,200.05c-25.38,0-49.51-8.36-64.2-18.15C1.44,170.77-4.62,143.21,3.72,116.38,11.43,91.6,27,73.87,34.46,65.34c.93-1.06,1.74-2,2.42-2.79C50.25,46.71,62.69,39.7,78.46,39.11l.71,0c13.93-.52,24.93-.94,39.28,6.88,11.81,6.44,28.47,25.59,40.77,80.22,3,13.45.06,27.31-8.59,40.09-11.36,16.78-31,29.21-51.15,32.45A109,109,0,0,1,82.34,200.05Zm6.58-152.2c-2.93,0-6,.12-9.41.25l-.72,0h0c-13.15.5-23.29,6.36-35,20.25-.7.84-1.56,1.81-2.53,2.92C33.63,80,19.47,96.11,12.34,119.05c-7.07,22.73-2.43,46.53,10.8,55.35,16.51,11,46.07,20,74.92,15.41,17.53-2.81,35.24-14,45.1-28.6,5-7.43,10.38-19.2,7.26-33.05-8.89-39.48-22.12-66.55-36.29-74.28C105,48.91,97.7,47.85,88.92,47.85Z" fill="#71695d"/><path d="M79.18,49.39c-1.71-5.26,9-44.76,14.72-44.88s5,58.45-.43,65.15-5.41-10.21-7.13-13.08S80.9,54.65,79.18,49.39Z" fill="#f0e0dc"/><path d="M91.26,75.73a5.8,5.8,0,0,1-1.5-.19c-4.64-1.22-5.58-6.84-6.58-12.78-.22-1.28-.53-3.15-.76-3.9-.18-.13-.65-.38-1-.56a12,12,0,0,1-6.55-7.51h0c-2.29-7,7-38.74,12.75-46.83.68-1,2.76-3.89,6.15-4,1.1,0,3.79.3,5.49,3.77,3.4,6.92,3.15,28.49,3,34.94C102,51.52,100.79,67.77,97,72.49,94.93,75,92.9,75.73,91.26,75.73ZM83.52,48.14c.44,1.29.87,1.51,2.16,2.2a10.55,10.55,0,0,1,4.53,3.92,15.15,15.15,0,0,1,1.53,5,187.27,187.27,0,0,0,1.55-21.93A179.23,179.23,0,0,0,92.49,14a117.73,117.73,0,0,0-4.83,13.78C84.6,38.24,83.3,46.23,83.52,48.14Zm0-.15h0Z" fill="#71695d"/><path d="M134.2,92.17C132.67,96.41,120,84.4,113.57,81s-26.82-5.86-23-9.57,7.48-36.8,6-46.69S94.16,5,94.16,5C113.71,6.65,144.83,62.8,134.2,92.17Z" fill="#f0dda6"/><path d="M132.86,97.58c-3.61,0-7.81-3-14.25-7.71a72,72,0,0,0-7.18-4.94c-2-1.06-6.38-2.21-10.28-3.22-8.87-2.31-14.23-3.71-15.36-8a5.54,5.54,0,0,1,1.52-5.37c2.62-4.21,6.28-33.27,4.82-42.93-1.5-9.9-2.42-19.52-2.46-19.92A4.5,4.5,0,0,1,94.53.53c4.13.34,15.19,3.39,28.52,24.18A122,122,0,0,1,138.18,59.1c3.48,13.49,3.57,25.46.26,34.6h0a5.74,5.74,0,0,1-3.76,3.61A6.22,6.22,0,0,1,132.86,97.58Zm-2.9-7Zm-34-19.76c2.14.72,5.2,1.51,7.49,2.11,4.81,1.25,9.36,2.44,12.27,4A78.33,78.33,0,0,1,124,82.62c2,1.44,4.8,3.54,6.9,4.84,2.82-12.66-.68-34.89-15.42-57.88-5.3-8.27-11.1-14.62-16-17.81.41,3.49,1,7.87,1.62,12.25C102.23,31.83,100.35,59.81,95.94,70.87Zm-2.2,3.76h0Z" fill="#71695d"/><path d="M85.23,137.53c-1.7-3-8.24,2.55-15.77,4.93s-7.67,2.31-10.59,2.31-2.45,3.76,2.24,5.57,22.23,8.42,22.62,4.19,1-5.69-3.77-5.37-12.68-.74-16.38-1.45C68.29,145.63,87.81,142.18,85.23,137.53Z" fill="#71695d"/><path d="M81,156.83c-3.75,0-10.53-1.88-20.26-5.62-3.61-1.38-4.92-3.78-4.62-5.41a2.51,2.51,0,0,1,2.72-2h.26c2.57,0,2.88,0,10.05-2.27a53.5,53.5,0,0,0,7.68-3.34c4.13-2.06,7.69-3.84,9.19-1.14h0a2.56,2.56,0,0,1,.15,2.3c-1.21,2.89-7.64,4.9-15.92,7.22l-2.8.8a71.24,71.24,0,0,0,12.42.82c2.28-.16,3.52.1,4.27.88,1,1,.81,2.4.59,4.55l-.09,1a2.14,2.14,0,0,1-1,1.67A5,5,0,0,1,81,156.83ZM58.87,145.71c-.36,0-.8.07-.87.43-.14.75.86,2.32,3.45,3.32,17,6.52,20.5,5.66,21.18,5.24a.29.29,0,0,0,.17-.25l.09-1c.15-1.45.27-2.7-.07-3.06S82,150,80,150.1c-4.8.32-12.74-.73-16.62-1.46a.95.95,0,0,1-.2-1.79,63.48,63.48,0,0,1,6.57-2.06c5.14-1.44,13.74-3.85,14.69-6.13a.7.7,0,0,0,0-.67c-.63-1.12-3.58.35-6.71,1.92a54.6,54.6,0,0,1-8,3.44c-7.11,2.25-7.74,2.36-10.51,2.36h-.36Z" fill="#71695d"/><path d="M9.62,162.46l7.61,1.43,10.19-1-.29,4-4.88,9.76-10-6.75Z" fill="#e47b7b"/><path d="M22.25,177.61a1,1,0,0,1-.52-.16l-10-6.75a1,1,0,0,1-.37-.47l-2.58-7.47a.94.94,0,0,1,1.06-1.23l7.48,1.41,10.06-1a.92.92,0,0,1,.74.26,1,1,0,0,1,.29.74l-.29,4a.88.88,0,0,1-.1.36l-4.88,9.76a1,1,0,0,1-.6.49ZM13,169.32l8.9,6,4.32-8.64.19-2.72-9.08.9a1.23,1.23,0,0,1-.27,0l-6-1.13Z" fill="#71695d"/><path d="M38.21,158.27c-1.94-3.27-11,5.43-17.43,4.15S7,158.28,6.05,155.24s.64,4.65,3.5,6.4c4.7,2.88,7.71,5.27,14.27,3.83S40.29,161.78,38.21,158.27Z" fill="#71695d"/><path d="M20.15,166.84c-4,0-6.72-1.68-9.94-3.68l-1.15-.72c-2.6-1.59-4.4-7.35-4.19-8.14a1,1,0,0,1,.89-.7h0c.73,0,.93.63,1.16,1.36.71,2.24,6.86,5.11,14,6.54,2.93.59,6.63-1.21,9.89-2.79,3.63-1.76,6.77-3.28,8.17-.92a2.6,2.6,0,0,1,.19,2.44c-1.25,2.87-7.9,4.55-15.19,6.15A17.7,17.7,0,0,1,20.15,166.84ZM8.51,159.05A5.14,5.14,0,0,0,10,160.84l1.17.72c4.08,2.54,6.78,4.22,12.41,3,4.18-.92,12.9-2.84,13.87-5.07a.75.75,0,0,0-.09-.73h0c-.52-.88-3.28.46-5.73,1.65-3.53,1.71-7.53,3.65-11.08,2.95S11.94,161.17,8.51,159.05Z" fill="#71695d"/><path d="M26.58,164.6c-.33,4.28-2.46,12.87-6.93,12.61.36.13,2.52,1.44,2.52,1.44,4.62-4.12,7.55-8.69,7-12.14S26.91,160.33,26.58,164.6Z" fill="#71695d"/><path d="M22.17,179.6a1,1,0,0,1-.49-.14c-.95-.58-2.12-1.27-2.35-1.36a1,1,0,0,1-.58-1.09.93.93,0,0,1,1-.73c3.51.24,5.61-7.55,5.93-11.75h0c.07-.89.23-3,1.66-3.05,1.82-.08,2.58,3.71,2.77,4.87.6,3.6-2.05,8.34-7.28,13A1,1,0,0,1,22.17,179.6Zm5.35-14.92c-.18,2.26-1.05,7.13-3.07,10.35,2.76-3.15,4.14-6.14,3.77-8.37a12.81,12.81,0,0,0-.66-2.45c0,.14,0,.29,0,.47Z" fill="#71695d"/><path d="M95.07,162.05c-1,.07-1.75,1.24-2.52,2.74-2-1.48-3.17-1.89-4-.34s.32,2.66,2.23,3.94a20.14,20.14,0,0,1-2.4,3.83l0,.06c-2.13-1.64-3.37-2.11-4.25-.5-.73,1.32.13,2.44,1.71,3.59-1.85,2.37-2.4,3.67-.69,4.58,1.51.82,2.76-.43,4.08-2.48l1.32.75c.84.47,1.72,1.05,2.62,1.62-1.81,2.32-2.35,3.61-.66,4.52,1.5.81,2.74-.41,4-2.42,2.37,1.4,4.4,2.27,5.1,1.05a2,2,0,0,0,.31-1.12c-.08-1.18-1.6-2-3.58-3,.18-.34.35-.63.54-1,.59-1.09,1.31-2.22,2-3.37,2.39,1.43,4.44,2.36,5.15,1.13a1.92,1.92,0,0,0,.31-1.11c-.08-1.2-1.62-2.06-3.64-3,1.28-2.23,2-4.09.83-4.75a1.83,1.83,0,0,0-1.11-.29c-1.15.09-2,1.55-2.91,3.45a19.64,19.64,0,0,1-3.29-2.16c-.33-.28-.56-.45-.86-.71,1.25-2.21,2-4.06.81-4.72A1.92,1.92,0,0,0,95.07,162.05Zm-1.52,8.06,1.4.78c1,.57,2.08,1.25,3.16,2a20.36,20.36,0,0,1-2.39,3.78c-.21.27-.35.43-.55.68a19.09,19.09,0,0,1-3.39-2.2l-.81-.67c.18-.32.34-.6.52-.94C92.09,172.4,92.82,171.26,93.55,170.11Z" fill="#e47b7b"/></svg>