<svg xmlns="http://www.w3.org/2000/svg" viewBox="0 0 74.42 108.47"><title>CatLgTora</title><path d="M54.47,4.52c8,.55,16.22,10.68,15.39,21.77s-6,26.76-16.64,47.56c-8.4,16.36-25.46,30.82-36,30.09C9.12,103.39-1.55,92.43,8.71,74S27.15,40.57,31,28.09,46.43,4,54.47,4.52Z" fill="#fff4e3"/><path d="M18,108.47c-.37,0-.74,0-1.1,0C11.17,108,5.55,104.2,2.54,98.66.2,94.34-2.63,85.11,4.78,71.8c10.55-19,18.31-33.31,22-45,4.12-13.24,17-27.47,28-26.72,4.7.32,9.35,2.87,13.08,7.18a26.82,26.82,0,0,1,6.49,19.41c-.93,12.38-6.69,29-17.13,49.29C49,91.94,31.5,108.47,18,108.47ZM53.89,9c-4.92,0-15,8.9-18.56,20.43C31.42,42,23.46,56.73,12.64,76.18,8.7,83.25,7.93,89.71,10.45,94.36a9.34,9.34,0,0,0,7,5.09C25.17,100,41,87.77,49.22,71.8,59.1,52.55,64.54,37.12,65.37,26A18,18,0,0,0,61.05,13.1C58.94,10.65,56.42,9.16,54.16,9h-.27Z" fill="#71695d"/><path d="M55.46,6C63.92,7.43,73,14.09,67.88,33.88S54.38,74,46.92,82.41C37.09,93.47,6,77.3,14.1,65.09,25.45,47.92,26.55,37,34.53,21.53,38.93,13,45.18,4.22,55.46,6Z" fill="#f0dda6"/><path d="M18,108.47c-.37,0-.74,0-1.1,0C11.17,108,5.55,104.2,2.54,98.66.2,94.34-2.63,85.11,4.78,71.8c10.55-19,18.31-33.31,22-45,4.12-13.24,17-27.47,28-26.72,4.7.32,9.35,2.87,13.08,7.18a26.82,26.82,0,0,1,6.49,19.41c-.93,12.38-6.69,29-17.13,49.29C49,91.94,31.5,108.47,18,108.47ZM53.89,9c-4.92,0-15,8.9-18.56,20.43C31.42,42,23.46,56.73,12.64,76.18,8.7,83.25,7.93,89.71,10.45,94.36a9.34,9.34,0,0,0,7,5.09C25.17,100,41,87.77,49.22,71.8,59.1,52.55,64.54,37.12,65.37,26A18,18,0,0,0,61.05,13.1C58.94,10.65,56.42,9.16,54.16,9h-.27Z" fill="#71695d"/></svg>