<svg xmlns="http://www.w3.org/2000/svg" viewBox="0 0 83.04 135.92"><title>CatTaTora</title><path d="M19.05,131.37c12.83-1.67,30.67-16.9,40.9-38.14C65.8,81.07,75.12,56.06,77.51,34.78c1.65-14.59,2.17-27.41-5.9-29.89s-14.06,8.28-18,18.22c-5,12.72-4.46,22.64-11.54,37.22C33.6,77.9,31.06,83,21.41,93.89c-7.86,8.91-17.17,17.3-16.9,22.55C4.78,121.88,12.91,132.18,19.05,131.37Z" fill="#f0dda6"/><path d="M18.36,135.92c-3,0-6.21-1.35-9.33-3.95C4.75,128.4.28,122,0,116.66c-.3-6,5.44-12.13,12.71-19.93,1.76-1.89,3.59-3.86,5.32-5.82C27.14,80.6,29.5,76,38.07,58.37c3.84-7.9,5.28-14.23,6.81-20.93a106.84,106.84,0,0,1,4.59-16C56,4.84,63.87-2.18,72.93.59,85.46,4.43,83.37,23,82,35.28c-2.62,23.3-12.91,49.37-18,59.9-10.37,21.56-29,38.65-44.36,40.66h0A10.86,10.86,0,0,1,18.36,135.92Zm51-126.86c-3.44,0-7.59,5.6-11.54,15.69a97,97,0,0,0-4.19,14.7c-1.58,6.89-3.21,14-7.49,22.85C37.35,80.49,34.64,85.7,24.79,96.87c-1.81,2-3.68,4-5.49,6C15.45,107,9,113.94,9,116.22c.09,1.7,2.39,6,5.8,8.84,1.91,1.6,3.24,1.91,3.67,1.85h0C29.1,125.53,46,111.82,55.89,91.28c4.85-10.06,14.66-34.91,17.15-57,.86-7.61,2.64-23.43-2.75-25.09A3,3,0,0,0,69.39,9.06Z" fill="#71695d"/><path d="M59.26,95c-14,2.12-24.26-5.91-29.55-11.52A105.9,105.9,0,0,1,37.77,69.7s17.28,11,24.65,13.44Z" fill="#cbaa65"/><path d="M69.14,64.12c-6.57.73-25.2-4.93-24.47-9.31s3.66-15.16,3.66-15.16C57.45,47,66,51.16,71.15,50.06,71.15,50.06,75.71,63.39,69.14,64.12Z" fill="#cbaa65"/><path d="M18.36,135.92c-3,0-6.21-1.35-9.33-3.95C4.75,128.4.28,122,0,116.66c-.3-6,5.44-12.13,12.71-19.93,1.76-1.89,3.59-3.86,5.32-5.82C27.14,80.6,29.5,76,38.07,58.37c3.84-7.9,5.28-14.23,6.81-20.93a106.84,106.84,0,0,1,4.59-16C56,4.84,63.87-2.18,72.93.59,85.46,4.43,83.37,23,82,35.28c-2.62,23.3-12.91,49.37-18,59.9-10.37,21.56-29,38.65-44.36,40.66h0A10.86,10.86,0,0,1,18.36,135.92Zm51-126.86c-3.44,0-7.59,5.6-11.54,15.69a97,97,0,0,0-4.19,14.7c-1.58,6.89-3.21,14-7.49,22.85C37.35,80.49,34.64,85.7,24.79,96.87c-1.81,2-3.68,4-5.49,6C15.45,107,9,113.94,9,116.22c.09,1.7,2.39,6,5.8,8.84,1.91,1.6,3.24,1.91,3.67,1.85h0C29.1,125.53,46,111.82,55.89,91.28c4.85-10.06,14.66-34.91,17.15-57,.86-7.61,2.64-23.43-2.75-25.09A3,3,0,0,0,69.39,9.06Z" fill="#71695d"/></svg>