<svg xmlns="http://www.w3.org/2000/svg" viewBox="0 0 83.04 135.92"><title>CatTaHati</title><path d="M19.05,131.38C31.88,129.7,49.72,114.47,60,93.23,65.8,81.07,75.11,56.06,77.51,34.78c1.64-14.59,2.17-27.41-5.9-29.89s-14.06,8.28-18,18.22c-5,12.72-4.46,22.64-11.54,37.23C33.6,77.9,31.06,83,21.41,93.89c-7.86,8.91-17.17,17.3-16.9,22.54C4.78,121.88,12.91,132.18,19.05,131.38Z" fill="#978f83"/><path d="M18.36,135.92c-3,0-6.21-1.35-9.33-3.95-4.28-3.58-8.75-10-9-15.31-.3-6,5.44-12.12,12.7-19.92,1.77-1.9,3.6-3.87,5.33-5.83,9.09-10.3,11.46-14.87,20-32.54,3.84-7.9,5.28-14.23,6.81-20.93a106.84,106.84,0,0,1,4.59-16C56,4.84,63.88-2.19,72.93.59,85.46,4.43,83.37,23,82,35.28c-2.62,23.3-12.91,49.37-18,59.91-10.38,21.55-29,38.65-44.36,40.65h0A10.86,10.86,0,0,1,18.36,135.92Zm51-126.86c-3.45,0-7.59,5.61-11.54,15.69a97,97,0,0,0-4.19,14.7c-1.58,6.89-3.21,14-7.49,22.85C37.35,80.49,34.63,85.71,24.79,96.87c-1.81,2-3.68,4.06-5.49,6C15.44,107,9,113.94,9,116.22c.09,1.7,2.39,6,5.8,8.84,1.91,1.6,3.22,1.92,3.67,1.85h0C29.1,125.53,46,111.82,55.89,91.28c4.85-10,14.66-34.91,17.15-57,.86-7.6,2.64-23.42-2.74-25.07A3.14,3.14,0,0,0,69.39,9.06Z" fill="#71695d"/></svg>