<svg xmlns="http://www.w3.org/2000/svg" viewBox="0 0 138.81 37.52"><title>Mezashi</title><path d="M38.29,24.2c-8.09,3.75-23.82,13-26.7,9.61s-.11-10.61-.35-12.63S-1.21,11.8,4.54,8.23s31.52,2.65,35.29,10C41.71,21.89,41.07,22.91,38.29,24.2Z" fill="#89aab8"/><path d="M13.6,37.52a5.29,5.29,0,0,1-4.28-1.75c-3-3.45-2-8.73-1.38-12.22C8,23,8.15,22.41,8.21,22c-.44-.47-1.2-1.18-1.79-1.73C3.4,17.43-.35,13.94,0,10.08A5.73,5.73,0,0,1,3,5.68c5.51-3.42,18.85,0,21.46.75,4.46,1.24,15.16,4.73,18.09,10.43,1,1.89,1.87,4.11,1.13,6.27-.69,2-2.36,3-4.08,3.79h0c-1.65.77-3.66,1.78-5.8,2.86C24.68,34.36,18,37.52,13.6,37.52Zm.06-6c2.85.19,12.61-4.71,17.39-7.12,2.18-1.1,4.24-2.14,6-2.95a7.38,7.38,0,0,0,.78-.4,9.7,9.7,0,0,0-.65-1.48c-1-1.91-5.89-5-14.35-7.39S7.61,9.85,6.12,10.78l-.07,0c.42,1.27,3.22,3.87,4.45,5,2.2,2,3.52,3.27,3.72,5a13.61,13.61,0,0,1-.38,3.79C13.49,26.56,12.86,30,13.66,31.55ZM38.29,24.2h0Z" fill="#71695d"/><path d="M131,19.54c-.09,1.19,4.08,2.71,2,4.17-5.52,3.83-16.8,7.85-28,8.45-9.38.51-59.37-3.15-64.81-7.58s-.4-7.88,2.55-8.81C48.76,13.84,81,2.09,104.48,3.06c17.69.72,35.43,8.32,30.48,12C132,17.29,131.08,18.28,131,19.54Z" fill="#bbdfee"/><path d="M103.35,35.19c-11.6,0-58.62-3-65.14-8.29-3.45-2.82-3.75-5.58-3.4-7.4.66-3.46,4.15-5.71,6.95-6.59l2.53-.84C54.86,8.54,83-.83,104.6.06c12.77.52,31.88,5.42,34,12.21a4.63,4.63,0,0,1-1.83,5.22c-1,.78-1.71,1.33-2.14,1.71A4.8,4.8,0,0,1,136.54,23a4.09,4.09,0,0,1-1.88,3.17c-5.58,3.86-17.21,8.32-29.58,9C104.65,35.18,104.06,35.19,103.35,35.19ZM101.69,6C81.43,6,55.1,14.79,46.19,17.76l-2.63.87c-1.53.48-2.77,1.53-2.86,2,0,.09.16.68,1.31,1.62s8.79,3,29.54,5c14.61,1.42,29,2.13,33.21,1.91,9.48-.51,19-3.58,24.52-6.71A4,4,0,0,1,128,19.3h0c.19-2.4,1.77-4,4.21-5.88-3-2.41-14.37-6.82-27.85-7.37C103.48,6,102.59,6,101.69,6Zm29.16,17.9h0Z" fill="#71695d"/><path d="M105.09,3.11a107,107,0,0,0,1,28.91c10.82-.81,21.52-4.62,26.84-8.31,2.11-1.46-2.06-3-2-4.17s1.06-2.25,4-4.45C139.86,11.42,122.57,4,105.09,3.11Z" fill="#dce9ec"/><path d="M103.35,35.19c-11.6,0-58.62-3-65.14-8.29-3.45-2.82-3.75-5.58-3.4-7.4.66-3.46,4.15-5.71,6.95-6.59l2.53-.84C54.86,8.54,83-.83,104.6.06c12.77.52,31.88,5.42,34,12.21a4.63,4.63,0,0,1-1.83,5.22c-1,.78-1.71,1.33-2.14,1.71A4.8,4.8,0,0,1,136.54,23a4.09,4.09,0,0,1-1.88,3.17c-5.58,3.86-17.21,8.32-29.58,9C104.65,35.18,104.06,35.19,103.35,35.19ZM101.69,6C81.43,6,55.1,14.79,46.19,17.76l-2.63.87c-1.53.48-2.77,1.53-2.86,2,0,.09.16.68,1.31,1.62s8.79,3,29.54,5c14.61,1.42,29,2.13,33.21,1.91,9.48-.51,19-3.58,24.52-6.71A4,4,0,0,1,128,19.3h0c.19-2.4,1.77-4,4.21-5.88-3-2.41-14.37-6.82-27.85-7.37C103.48,6,102.59,6,101.69,6Zm29.16,17.9h0Z" fill="#71695d"/><path d="M107.27,33.11a3,3,0,0,1-2.41-1.21c-3.25-4.36-4.64-21-3.37-26.66A5.55,5.55,0,0,1,104,1.43a3,3,0,0,1,3.44,4.85c-1.21,3.37.41,19.53,2.27,22a3,3,0,0,1-2.4,4.79Zm-.52-26.36Z" fill="#71695d"/><path d="M103.14,23.44c-2.35,2.5-15.7,7.15-17.26,1.17s2-7.33,6.12-7.77C98.17,16.17,105.49,20.94,103.14,23.44Z" fill="#89aab8"/><path d="M91,30.52a12,12,0,0,1-3-.33A6.66,6.66,0,0,1,83,25.36c-.83-3.19-.55-5.81.82-7.79,1.9-2.74,5.21-3.43,7.88-3.71,5.59-.61,12.43,2.36,14.35,6.23a4.62,4.62,0,0,1-.71,5.41h0C103.14,27.81,96.39,30.52,91,30.52Zm2.21-10.75c-.31,0-.61,0-.92.05-2.49.27-3.32.78-3.58,1.16a4,4,0,0,0,.05,2.87c0,.14.08.34.74.51,2.78.75,8.13-1,10.47-2.32A11.93,11.93,0,0,0,93.24,19.77Zm9.9,3.67h0Z" fill="#71695d"/><path d="M116.73,13.71c-.36.42-5.59,5.56-5.59,5.56" fill="#89aab8"/><path d="M111.14,22.27a3,3,0,0,1-2.15-.9,3,3,0,0,1,.05-4.25c2.41-2.37,5.11-5,5.44-5.4a3,3,0,0,1,4.22-.32,3,3,0,0,1,.32,4.25c-.3.35-2.24,2.29-5.78,5.76A3,3,0,0,1,111.14,22.27Z" fill="#71695d"/><path d="M116.49,19.37l-4.61-5.63" fill="#89aab8"/><path d="M116.5,22.37a3,3,0,0,1-2.33-1.09l-4.61-5.64a3,3,0,0,1,4.64-3.8l4.61,5.63a3,3,0,0,1-2.31,4.9Z" fill="#71695d"/></svg>