<svg xmlns="http://www.w3.org/2000/svg" viewBox="0 0 310.85 201.52"><title>PrAm</title><path d="M209.29,68.68c-13.64,1-34.74,8.88-62,17.55s-55.83,22.42-51,13.06,4.6-20.48,7.2-31.35c9.57,5.65,31.39,1.71,40.43-.47s27.86-30.68,35.9-58.59c5.36,8,34,30.25,46.8,39.89S209.29,68.68,209.29,68.68Z" fill="#7fadc6"/><path d="M97.86,106.93a6.44,6.44,0,0,1-5.24-2.1c-1-1.15-2.41-3.65-.4-7.59,2.78-5.42,3.72-11.79,4.72-18.53.57-3.84,1.16-7.82,2.11-11.82a4.5,4.5,0,0,1,6.67-2.83c6.6,3.9,23.85,2.23,37.08-1,6-1.45,24.28-26.45,32.63-55.46a4.5,4.5,0,0,1,8.07-1.26c4,6.06,25.9,23.85,45.76,38.8,4.78,3.59,5.28,7.49,4.86,10.12-1.51,9.49-18.27,15.9-23.37,17.64a4.85,4.85,0,0,1-1.12.23c-10.16.76-25.17,5.68-44.18,11.9-5.37,1.76-10.91,3.57-16.82,5.45-8,2.56-16.35,5.61-23.68,8.31C110.55,104.14,102.64,106.93,97.86,106.93Zm8.91-32.86c-.34,2-.64,4-.93,6-.85,5.72-1.72,11.59-3.79,17.16,5-1.35,13-4.3,19.79-6.8,7.41-2.73,15.82-5.83,24.07-8.45,5.86-1.86,11.39-3.67,16.74-5.42,19.24-6.3,34.52-11.3,45.71-12.28,11.22-3.93,16.91-9,16.88-10.39,0-.1-.3-.66-1.39-1.48C216,46.42,193.09,29,181.64,17.74c-9.11,26-26.15,51.54-36.72,54.1C138.66,73.36,119.53,77.41,106.77,74.07Z" fill="#71695d"/><path d="M151.12,176.06c-.16,5.24-19.36,23.68-24.29,20.61s-12.25-13.76-11.9-18.41S151.28,170.83,151.12,176.06Z" fill="#7fadc6"/><path d="M128.19,201.52a7,7,0,0,1-3.74-1c-5.66-3.52-14.54-15.53-14-22.58.39-5.11,6.89-6.86,13.84-8a95.92,95.92,0,0,1,18.8-1.11c3.48.19,12.74.68,12.54,7.38-.21,7-14.16,19.68-21.05,23.38A14.12,14.12,0,0,1,128.19,201.52Zm-8.44-21.41c1.19,3.35,5.38,9.76,8.86,12.33,3.78-.91,13.19-9.53,16.73-14.45C139,177.19,124.84,178.3,119.75,180.11Z" fill="#71695d"/><path d="M240.32,155.15c-1.59,13.06-3.71,34.09-10.69,34.53s-20.91-13.82-23.28-19.49S241.91,142.07,240.32,155.15Z" fill="#7fadc6"/><path d="M229.38,194.19c-9.81,0-24.55-16-27.18-22.27-1.94-4.66,2.83-9.09,4.4-10.54,6-5.56,25.66-18.22,34.3-13.81,1.38.71,4.52,2.91,3.89,8.12h0l-.27,2.22c-2.1,17.51-4.27,35.61-14.61,36.26Zm-18.27-24.55c3.22,5.4,14.07,15.34,18,15.55.44-.42,2-2.34,3.65-9.73,1.29-5.81,2.14-12.91,2.82-18.62l.14-1.19c-2.11.26-6.49,1.59-12.86,5.21S212.49,168,211.11,169.64Z" fill="#71695d"/><path d="M305.85,62.81c-5-8.87-61.15-13.52-86.2-12.91-31.32.76-58.69,4.59-98.15,29.44C92.82,97.4,48.07,144.47,48.9,154.73c.79,9.81,10.35,14.32,27.14,18.54,31.24,7.84,66.8,9.5,127.73-4,51.84-11.49,86.85-51.76,92.89-62.26s-18.87-.5-20.48-5.79S310.87,71.68,305.85,62.81Z" fill="#d9f0f4"/><path d="M161.63,59.31c-12.25,4.36-25.34,10.72-40.14,20-28.68,18.05-73.43,65.12-72.6,75.38,0,.16.09.29.11.45a46.74,46.74,0,0,0,3.27,5.92c10.31-5.93,166.78-56.72,166.78-56.72s-9-38.36-5.18-54.5C195.49,50.46,181,52.44,161.63,59.31Z" fill="#7fadc6"/><path d="M56.55,167.25l-.83,0a4.5,4.5,0,1,1,.4-9c7.69.34,41.25-6.2,83.53-16.28,40.39-9.63,75.56-19.35,83.62-23.1a4.5,4.5,0,0,1,3.8,8.16C208.81,135.51,78.61,167.25,56.55,167.25Z" fill="#8aaab8"/><path d="M68.14,171.59a39.66,39.66,0,0,1-7.31-.52,4.5,4.5,0,1,1,1.77-8.82c18.95,3.81,155.44-20.85,169-26.05a4.5,4.5,0,1,1,3.24,8.4C222.59,149.29,104.11,171.59,68.14,171.59Z" fill="#8aaab8"/><path d="M125.8,183.83a205.16,205.16,0,0,1-50.86-6.2c-14.82-3.72-29.39-8.53-30.53-22.54-.65-8.1,14-25.27,26.47-38.24,16.33-17,34.8-32.87,48.22-41.32C161.34,48.94,190.71,46.1,219.54,45.4c13.74-.33,34.35.85,51.28,2.94,34.42,4.24,37.59,9.86,38.95,12.26,4.68,8.28-6.64,18.83-18.63,30-2.56,2.38-5.7,5.31-7.91,7.62,1.08-.09,2.17-.21,3-.3,6.23-.67,12.12-1.3,14.81,2.83,1.06,1.62,1.82,4.4-.52,8.48-7.6,13.21-44.43,53-95.81,64.41C174,180.46,148.67,183.83,125.8,183.83ZM224.42,54.35c-1.63,0-3.19,0-4.67,0-33.86.82-59.17,5.65-95.86,28.75-12.61,7.94-30.18,23-45.86,39.24-17.72,18.4-24.52,29.43-24.64,32.06.51,6.3,7,10.24,23.74,14.45,35.8,9,72.21,7.82,125.67-4.05,49.26-10.91,81.52-47.69,88.85-58.38-1.47.08-3.17.26-4.42.4-6.37.68-13.58,1.46-15.35-4.36-1.49-4.88,3.39-9.43,13.13-18.5,5-4.63,16.49-15.36,16.81-19.08-1.7-1.6-10.44-5.06-33.12-7.78A402.68,402.68,0,0,0,224.42,54.35ZM301.93,65Z" fill="#71695d"/><path d="M243.68,156.23c-27.63-16.29-38.56-88.32-34.6-106.44l8.79,1.93c-3.82,17.48,8.45,83.83,30.38,96.76Z" fill="#71695d"/><path d="M49.57,160.89C46.86,171,32.33,192.87,22,195.73s-.7-25.25-5.57-35.64-20.86-29.43-5.25-25.21S52.29,150.82,49.57,160.89Z" fill="#7fadc6"/><path d="M20.68,200.42A7.27,7.27,0,0,1,16,198.79c-4.25-3.49-3.72-10.69-3.05-19.81.45-6.06,1-13.61-.57-17-1.12-2.39-3-5.52-4.88-8.55-5.47-9-9.79-16.06-6.13-20.94,3.09-4.12,9.05-2.5,11-2a118.68,118.68,0,0,1,27.18,11.28c11.35,6.71,16.18,13.53,14.37,20.25-2.87,10.64-18.16,34.53-30.71,38A9.33,9.33,0,0,1,20.68,200.42ZM9.76,139.15a103.42,103.42,0,0,0,5.42,9.62,107,107,0,0,1,5.34,9.41c2.58,5.51,2,13.62,1.4,21.47-.27,3.68-.66,9-.25,11.44,8.15-3.31,21.12-22.33,23.56-31.37h0c.33-1.22-1.39-4.92-10.26-10.16A110,110,0,0,0,10,139.22Z" fill="#71695d"/><path d="M219.78,106.81c-12.63,5.62-34.56,31.47-34.89,40.83s29.67-11.1,41-19.39C223.8,118.7,220.67,111.52,219.78,106.81Z" fill="#7fadc6"/><path d="M187.12,154.56a6.61,6.61,0,0,1-6.72-7.08c.27-7.78,9.81-19.78,13.9-24.58,8.31-9.76,17.15-17.31,23.64-20.2a4.46,4.46,0,0,1,3.92.12A4.52,4.52,0,0,1,224.2,106a66.74,66.74,0,0,0,2.11,7.26c1.24,3.81,2.79,8.56,4,14a4.49,4.49,0,0,1-1.74,4.61C202.31,151.06,191.81,154.56,187.12,154.56ZM217,113.66a94.14,94.14,0,0,0-15.84,15.08c-6.1,7.16-9.46,12.73-10.9,16.12,5.49-2.05,16.77-8.58,30.6-18.49-1-3.86-2.09-7.27-3.1-10.35C217.49,115.2,217.23,114.42,217,113.66Z" fill="#71695d"/><path d="M243.17,82.46a10.63,10.63,0,1,1,13.5,6.63A10.64,10.64,0,0,1,243.17,82.46Z" fill="#fff7f1"/><path d="M253.25,92.66a13.63,13.63,0,1,1,6-25.87,13.64,13.64,0,0,1-1.61,25.14A13.69,13.69,0,0,1,253.25,92.66Zm0-21.27a7.8,7.8,0,0,0-2.47.41,7.63,7.63,0,1,0,9.68,4.76,7.55,7.55,0,0,0-3.85-4.39A7.66,7.66,0,0,0,253.24,71.39Z" fill="#71695d"/><path d="M248.06,81.32a8,8,0,1,1,10.1,4.84A7.92,7.92,0,0,1,248.06,81.32Z" fill="#71695d"/><path d="M232.13,115.49c-1.92-5.64,1.46-11.9,7.55-14s12.58.81,14.51,6.45-1.46,11.9-7.55,14S234.06,121.13,232.13,115.49Z" fill="#e47b7b"/><path d="M153,104.44c10.55,2.84,44.48,16.81,38.78,31.92s-47.61,7.13-55.88-4S142.43,101.58,153,104.44Z" fill="#fff7f1"/><path d="M172.63,149.16c-14.78,0-34-5.57-40.37-14.11-4.91-6.6-4.34-16,1.49-24.57,4.55-6.69,12.62-12.49,20.4-10.39,6.81,1.84,33.7,11.57,40.9,25.61A14.86,14.86,0,0,1,196,138c-1.54,4.07-5.69,9.24-16.76,10.79A47,47,0,0,1,172.63,149.16ZM150.8,108.65c-2.87,0-6.8,2.76-9.61,6.89-2.7,4-4.76,10-1.71,14.14,4.37,5.89,24.57,12.09,38.47,10.15,3-.42,8.3-1.64,9.59-5.06a5.73,5.73,0,0,0-.5-5c-4.56-8.91-25-18.28-35.24-21h0A3.66,3.66,0,0,0,150.8,108.65Z" fill="#71695d"/><path d="M68.83,5.41C51.42,10.69,43.17,31.63,41.18,59.57s-6.56,81.54,18.53,92.09,75.55,12.25,108.9-34.5,20.54-56.55,11.69-61.3c-12.25-6.56-41.11-15.31-64.54-27.68C93.4,16.38,84.8.56,68.83,5.41Z" fill="#ffe789"/><path d="M142.74,40.37c-.25,15.76,8.59,38.43-10.44,33.23-28-7.63-33.47,7.27-29.47,29.45s-29.08,12.35-39.26,5.8c-6.58-4.23-16.18-7.93-23.64-3.59,1.09,20.91,5.69,40.48,19.78,46.4,25.08,10.55,75.55,12.25,108.91-34.5s20.53-56.55,11.68-61.29C172.58,51.74,158.13,46.6,142.74,40.37Z" fill="#ffd06a"/><path d="M92.67,162.28c-14,0-26.3-2.94-34.7-6.48C30.56,144.28,34.3,92.46,36.53,61.5l.16-2.25C39,26.62,49.68,6.52,67.52,1.1,80-2.69,88.78,3.94,98.93,11.62A135,135,0,0,0,117.86,24.2c13.21,7,28,12.71,41.06,17.78,9.68,3.75,18,7,23.5,9.92,2.92,1.56,9.76,5.22,11.78,13.87,2.76,11.8-4.42,29.46-21.93,54C148.79,152.7,118,162.27,92.67,162.28ZM74.62,9a15.23,15.23,0,0,0-4.48.71h0C52.49,15.07,47.09,40,45.67,59.89l-.16,2.26C43.58,88.83,40,138.49,61.45,147.51c21.28,9,70.3,13.57,103.5-33C184.5,87.14,186.88,74,185.44,67.82c-.92-3.9-3.46-5.95-7.27-8-5-2.67-13.1-5.81-22.5-9.46-12.62-4.9-28.34-11-42-18.21A141.62,141.62,0,0,1,93.5,18.79C85.29,12.58,80.26,9,74.62,9Z" fill="#71695d"/></svg>