<svg xmlns="http://www.w3.org/2000/svg" viewBox="0 0 275.22 360.21"><title>PrBd</title><path d="M166.73,290.73c-11.87-1.65-19.88,21.54-17.4,38.1s5.25,25.68,10.77,26.51,9.67-19.6,11.6-32.86S178.6,292.39,166.73,290.73Z" fill="#fff7f1"/><path d="M160.43,359.87a6,6,0,0,1-1-.08c-8.57-1.29-11.82-12.08-14.56-30.29-2.07-13.81,2.35-30.72,10.05-38.5,4.64-4.69,9.32-5.16,12.42-4.72a12.26,12.26,0,0,1,8.61,4.9c4.57,6.25,2.83,16.35,1.15,26.13-.36,2-.69,4-1,5.82-4.37,30-9.7,34-11.45,35.26A7,7,0,0,1,160.43,359.87Zm5.08-64.73c-.84,0-2.31.3-4.18,2.19-5.73,5.79-9.18,19.91-7.55,30.84.92,6.09,3.24,19.63,6.16,22.28,1.8-2.7,4.83-11.63,7.31-28.62.28-2,.64-4.05,1-6.05,1.23-7.18,2.78-16.12.46-19.3a3.47,3.47,0,0,0-2.59-1.29h0A4,4,0,0,0,165.51,295.14Z" fill="#71695d"/><path d="M139.3,291.08c-11.87-1.66-19.88,21.54-17.39,38.1s5.24,25.68,10.76,26.5,9.67-19.59,11.6-32.85S151.17,292.74,139.3,291.08Z" fill="#fff7f1"/><path d="M133,360.21a7.63,7.63,0,0,1-1-.07c-8.56-1.28-11.81-12.08-14.54-30.29-2.08-13.81,2.34-30.73,10.05-38.51,4.63-4.68,9.3-5.15,12.41-4.71h0a12.3,12.3,0,0,1,8.62,4.9c4.56,6.25,2.82,16.35,1.14,26.12-.35,2-.68,4-1,5.83-4.37,30-9.7,34-11.45,35.25A7,7,0,0,1,133,360.21Zm5.07-64.72c-.85,0-2.31.3-4.18,2.18-5.73,5.79-9.18,19.91-7.54,30.85.91,6.1,3.23,19.64,6.15,22.28,1.8-2.7,4.83-11.63,7.31-28.62.29-2,.64-4.06,1-6.06,1.24-7.18,2.78-16.11.46-19.29a3.47,3.47,0,0,0-2.59-1.29h0A3.69,3.69,0,0,0,138.08,295.49Z" fill="#71695d"/><path d="M209.41,40.08C237.2,97.74,272,210.46,270.69,236.94s-15.58,49.29-32.32,59.43-76.62,29.56-125.55,19.29S19.08,277.45,9.26,259.09s-3.85-45.75,10.37-65.83S101,81.18,113.27,36.9c3.39-16,21.53-30.75,28.83-21.06s-5.61,35.56,12.75,39.61C173.5,59.56,191.59,57,209.41,40.08Z" fill="#ffe789"/><path d="M142.92,323.07a151.15,151.15,0,0,1-31-3c-50.63-10.63-96-39-106.61-58.85C-4.66,242.6-.28,213.58,16,190.66l3.86-5.42c19.27-27,77.86-109,89.09-149.41,2.7-12.51,13.54-24.95,23.74-27.21,5.25-1.17,10,.48,13.05,4.52,3.83,5.07,3.55,12.37,3.28,19.42-.45,11.71.06,17,6.85,18.5,19.93,4.39,35.5,0,50.49-14.24a4.5,4.5,0,0,1,7.16,1.31c27.87,57.85,63.06,171.32,61.72,199-1.26,26-15.12,51.33-34.49,63.06C227.13,308.43,185.18,323.07,142.92,323.07Zm-7-305.83a6.13,6.13,0,0,0-1.32.16c-6.11,1.36-14.83,10.58-16.92,20.43a2.61,2.61,0,0,1-.06.27C106,80,46.65,163.14,27.14,190.47l-3.84,5.39C9,216.11,4.82,241.24,13.23,257s50.62,43.8,100.52,54.28c47.64,10,106.78-9.35,122.29-18.73,14.08-8.53,28.86-29.08,30.16-55.79,1.12-23.29-30-128.17-58.3-189.31-15.89,13.06-33.2,17-54,12.43C139,56.57,139.58,42.5,140,32.22c.21-5.48.43-11.15-1.47-13.67A3,3,0,0,0,135.91,17.24Z" fill="#71695d"/><path d="M29.91,202.05c-6.32.24-12.83,3.1-19.21,7.24-7.27,17.07-8.83,36-1.44,49.8,9.82,18.36,54.64,46.29,103.57,56.56s108.8-9.16,125.55-19.29,31-32.93,32.31-59.42c.3-6.23-1.52-17.49-4.64-31.41-16.57-7.63-27,1.78-32.12,27.67-6.11,30.72-40.6,47.73-58.69,29.3s-39.42-25.7-58.6-9.09S79.78,293.3,61,235.44C52.79,210.12,41.7,201.61,29.91,202.05Z" fill="#ffd06a"/><path d="M142.92,323.07a151.15,151.15,0,0,1-31-3c-50.63-10.63-96-39-106.61-58.85C-4.66,242.6-.28,213.58,16,190.66l3.86-5.42c19.27-27,77.86-109,89.09-149.41,2.7-12.51,13.54-24.95,23.74-27.21,5.25-1.17,10,.48,13.05,4.52,3.83,5.07,3.55,12.37,3.28,19.42-.45,11.71.06,17,6.85,18.5,19.93,4.39,35.5,0,50.49-14.24a4.5,4.5,0,0,1,7.16,1.31c27.87,57.85,63.06,171.32,61.72,199-1.26,26-15.12,51.33-34.49,63.06C227.13,308.43,185.18,323.07,142.92,323.07Zm-7-305.83a6.13,6.13,0,0,0-1.32.16c-6.11,1.36-14.83,10.58-16.92,20.43a2.61,2.61,0,0,1-.06.27C106,80,46.65,163.14,27.14,190.47l-3.84,5.39C9,216.11,4.82,241.24,13.23,257s50.62,43.8,100.52,54.28c47.64,10,106.78-9.35,122.29-18.73,14.08-8.53,28.86-29.08,30.16-55.79,1.12-23.29-30-128.17-58.3-189.31-15.89,13.06-33.2,17-54,12.43C139,56.57,139.58,42.5,140,32.22c.21-5.48.43-11.15-1.47-13.67A3,3,0,0,0,135.91,17.24Z" fill="#71695d"/><path d="M164,4.58C150.83,4,132,4.86,122.32,39.07s-1.14,69,37.07,67.85,66.14-26.8,54.73-53.6S177.06,5.15,164,4.58Z" fill="#fff7f1"/><path d="M157.62,111.45c-14.54,0-26.17-5.09-33.73-14.79C113.37,83.17,111.23,61.74,118,37.84,127.8,3.22,146.83-.67,164.14.08c15.18.66,42.13,23.29,54.12,51.48a34.66,34.66,0,0,1-2.88,33.1c-10.1,15.78-31.5,26-55.86,26.76ZM159.51,9c-10.46,0-24.82,3-32.86,31.35-5.89,20.79-4.27,39.79,4.33,50.82,6.14,7.88,15.65,11.68,28.27,11.31,21.1-.64,40.16-9.52,48.55-22.63A25.55,25.55,0,0,0,210,55.09a98,98,0,0,0-23.36-32.67c-8.51-7.88-17.49-13.11-22.87-13.35h0C162.44,9,161,9,159.51,9Z" fill="#71695d"/></svg>