<svg xmlns="http://www.w3.org/2000/svg" viewBox="0 0 252.18 287.93"><title>PrHd</title><path d="M160.57,41.59c2-9.52,32.63-39.94,42.15-36.88s15.63,44.53,12.06,53.53-18.86,9.69-31.43,3.91S158.53,51.11,160.57,41.59Z" fill="#978f83"/><path d="M199.56,70.39a44.1,44.1,0,0,1-18.09-4.15l-1.2-.55c-13.19-6-26.83-12.3-24.1-25h0c2-9.4,22.14-29.86,34.78-37.17,5.44-3.15,9.74-4.15,13.15-3,3.22,1,6,4,8.34,9.06,6.33,13.4,10,41.67,6.53,50.41a15.59,15.59,0,0,1-9.09,8.68A27.74,27.74,0,0,1,199.56,70.39ZM165,42.53c-1.13,5.29,6.81,9.37,19.05,15l1.2.55c7.45,3.42,16,4.29,21.31,2.17a6.79,6.79,0,0,0,4.07-3.64c1.17-3,1-13.73-1.26-26-2.78-14.87-6.61-21-8-21.63-1.51-.29-8.45,2.51-19.84,13.14-9.36,8.75-15.85,17.4-16.5,20.4Z" fill="#71695d"/><path d="M47.3,168.84c4.11-27.73,14.1-87.2,63-108.67,32.65-14.32,73.12-17.86,99.42,2.36,16.57,12.73,33.66,48.9,37.22,78.34s-6.12,77.64-34.18,92c-31.49,16.06-128.92,4.57-152.09-13.1C45.61,208.22,43.2,196.57,47.3,168.84Z" fill="#978f83"/><path d="M164,244.92c-40.77,0-89.71-9.18-106-21.61-17.8-13.57-19.06-28.59-15.13-55.13h0C46.46,143.81,56,79.08,108.53,56.05c17.79-7.81,36.42-12,53.86-12.16,19.78-.18,37.08,5,50.12,15.07,17.38,13.36,35.22,50.63,38.94,81.37,3.58,29.56-5.57,80.67-36.6,96.5C203.75,242.5,185,244.92,164,244.92ZM51.75,169.5c-4,26.94-1.58,36.54,11.69,46.65,10.21,7.79,38.6,15.14,70.64,18.3,33.93,3.34,63.31,1.18,76.68-5.63,8.1-4.14,19.31-14,26.7-37.64,5-16,6.89-34.59,5.06-49.76C239.1,113.2,222.51,78,207,66.1c-17.39-13.37-51.44-20.86-94.87-1.81-47.94,21-57,82.19-60.4,105.21Z" fill="#71695d"/><path d="M212.1,96.78c18.31,26.54,37.94,99.7,3,131.57-27.8,25.36-126.57,25.21-136.64-23.13S98.62,75.63,144.28,71.6,197.5,75.63,212.1,96.78Z" fill="#fff7f1"/><path d="M154.41,249.58c-14,0-28.09-1.88-40.42-5.87-22.51-7.29-36.32-20.28-39.92-37.57-7-33.47,4.45-81.17,26.58-111,12.6-17,27.55-26.68,43.23-28.06,48.13-4.25,56.83,5.24,71.92,27.1h0c8.87,12.85,19.19,38.19,22.24,65.85,4.44,40.13-8.36,61.08-19.89,71.6C205.58,243.14,180.25,249.58,154.41,249.58Zm9.68-174.49c-5.52,0-11.91.33-19.42,1-16.48,1.46-29.11,14.11-36.8,24.47C87.46,128,76.49,173.6,82.88,204.3c3.67,17.62,20.45,26.5,33.88,30.84,32,10.34,78.29,5.42,95.32-10.12,10-9.11,21-27.6,17-64-2.89-26.1-12.48-49.81-20.71-61.73h0C197.32,83.3,191.66,75.09,164.09,75.09Z" fill="#71695d"/><path d="M232.58,135.05c-6.38,14.1-30.55,33.56-29.45,5.32-14.51,19.19-17.09,10-14.55-3.94-13.9,35.93-41.82,75.5-54.5,98.75-16.74,30.67-34.45,44.35-66.62,48.64-18.59,2.48-40.68-7.5-50.61-21.44-8.78-12.33-13.08-34.33-3.92-55.68,6.72-15.7,29-30.27,47.64-28,0,0,10.28-53.8,32.42-86.67,12.06-17.9,39.81-38.16,61.5-37.57,24.37.67,43.83,1.79,58.59,20.58S239,121,232.58,135.05Z" fill="#978f83"/><path d="M195.06,98.26c-.42-.25-1.32.82-2.79,3.4-11.79,20.63-55.12,73.41-79.88,78.13s-30.06,1.46-47.15-1.19c25.93,9.72,35.07,39.19,24.75,55.7s-19.75,25.64-37.14,22.4c-1.34-.25-2.9-.48-4.33-.73a8.6,8.6,0,0,0-1.87-2.45c-9.95-10.29-8.71-28,5.93-36.49s41.34,13.36,27.21-10.79c-6.29-10.75-9.79-10.65-25.17-11.3-12.33-.51-17.2,5.14-25.68,13.88s-5.66,23.12,1.53,33.91a43.59,43.59,0,0,0,14,12.56c-14.95-2.43-31.48-4-30.81,1.77a43.24,43.24,0,0,0,3.18,5.32c9.93,13.94,32,23.91,50.63,21.43,32.17-4.29,49.88-18,66.62-48.63,9.44-17.31,27.3-43.66,41.56-70.82C188.45,127.81,197,99.36,195.06,98.26Z" fill="#83796a"/><path d="M62.39,287.93c-19.86,0-40.51-10.74-49.21-22.94C3.18,250.93-6.68,231.2,6,203.08c7.63-16.89,29.58-32.75,55.25-28.86,9,1.37,21.58,8,29.46,19.62,7.23,10.7,9.3,23.78,6,37.84-6.37,27-35.43,33.23-45.4,31-8.54-1.89-20.86-8.22-27.44-19.83a32.19,32.19,0,0,1-2.33-26.75c3.17-9.53,21.1-30.86,44.59-24.7,9.22,2.42,16.85,10.12,21.48,21.69.62,1.53,1.16,3.09,1.65,4.68a34.83,34.83,0,0,0-6-18.91c-6.32-9.35-16.54-14.72-23.35-15.76-21.29-3.22-39.43,9.78-45.7,23.66-10.71,23.74-3.29,39.5,6.31,53,8.53,12,32.74,22.49,51.18,18.12,30.56-7.23,40.42-17.34,57.2-40.4,16.2-22.29,42-67.88,55.49-102.68a4.5,4.5,0,0,1,8.62,2.43,37.14,37.14,0,0,0-.75,8.53,46.55,46.55,0,0,0,7.29-8.11,4.5,4.5,0,0,1,8.08,2.89c-.28,7.22,1.28,9.51,2.15,9.72,3.91.92,14.63-8.07,18.71-17.07a4.5,4.5,0,1,1,8.2,3.71C232,147.32,218,161.46,207.7,159c-2.92-.69-6.16-2.71-7.88-7.93-3.84,3.66-7.86,5.8-11.71,4.11a7,7,0,0,1-2-1.3c-14.46,32.48-35.82,69.39-50,88.87-8.93,12.29-16.32,21.29-25.5,28.17-9.4,7.05-20.78,11.89-36.89,15.7A49.21,49.21,0,0,1,62.39,287.93Zm-4.53-88.58c-14.79,0-26,14.18-27.79,19.61-2.32,6.94-1.77,13.5,1.62,19.47,4.79,8.46,14.28,13.88,21.56,15.49,3.67.81,18.55-.65,27.9-11.08a3.87,3.87,0,0,1,.42-.87c2-3.17,2-14.69-2.32-25.51-2.06-5.13-6.79-14.07-15.42-16.33A23.27,23.27,0,0,0,57.86,199.35Z" fill="#71695d"/><path d="M135.63,62C137.38,48.67,88.44,24,79.53,33.11s-18.28,88.94-5.42,90c12.58,1,24.73-23.09,33.38-33C115.71,80.65,133.86,75.41,135.63,62Z" fill="#fff4e3"/><path d="M74.94,127.65c-.4,0-.8,0-1.2-.05-2.44-.2-5.79-1.63-7.89-7.27C61.25,108,64.09,80.21,65.07,72s4.68-35.34,11.25-42c7.79-7.95,27.47.36,35.56,4.31,5,2.44,29.92,15.27,28.21,28.27-1.39,10.61-10.5,16.72-18.54,22.11-4.16,2.79-8.09,5.43-10.66,8.39-2.12,2.44-4.59,6-7.21,9.7C95.49,114.44,86.24,127.65,74.94,127.65Zm10.72-92a4.56,4.56,0,0,0-2.92.64c-4.18,4.26-11.15,40.2-10.38,66.68.32,11.38,2.06,14.87,2.63,15.71,6.63-.08,15.09-12.18,21.32-21.07,2.75-3.94,5.36-7.65,7.79-10.45,3.36-3.86,8-7,12.44-9.95,7.08-4.75,13.76-9.24,14.63-15.82h0c.34-2.59-7.13-11.16-23.23-19C97.7,37.37,89.77,35.62,85.66,35.62Z" fill="#71695d"/><path d="M184.68,181.06c-5.08-.24-8.56,11-9,15.27-1.25,11.88,16.48,11.73,15.59,0C190.69,188.89,189.83,181.31,184.68,181.06Z" fill="#71695d"/><path d="M83.78,36.14C95.91,40.81,115.29,72.75,111,86.65c19.78-13.25,28.17-24.31,22.32-31.44S110.9,37.36,101.49,34.13C84.77,28.4,71.65,31.47,83.78,36.14Z" fill="#978f83"/><path d="M111,91.15a4.5,4.5,0,0,1-4.3-5.84c3.5-11.25-14.22-41-24.49-45-4.28-1.65-9-4.6-7.3-9.32,2.85-7.85,21.24-3.49,28.08-1.14,9.63,3.29,27.12,14.32,33.81,22.48a12.27,12.27,0,0,1,2.7,9.81c-1.2,8.07-9.7,17.3-26,28.22A4.47,4.47,0,0,1,111,91.15ZM92.31,36.32c10.4,8.86,21.26,27.37,23.35,41.47,12.44-9.44,14.59-14.87,14.9-16.94a3.3,3.3,0,0,0-.76-2.79c-5.15-6.28-20.73-16.57-29.77-19.67A57.31,57.31,0,0,0,92.31,36.32Z" fill="#71695d"/><path d="M222,211.68c1.48.5,2.41,1.25.26,4.54s-6.61,9.32-9.13,9.34-4.65.06-3-4,8.82-9.36,8.82-9.36" fill="#e47b7b"/><path d="M209.43,229.94c-4.11-5.72-3.33-10.08-2-12.73,3.48-6.67,14-8.93,20.29-8.87l-.09,6c-5.72-.11-13.06,2.17-14.88,5.65-.32.62-1.32,2.53,1.5,6.45Z" fill="#71695d"/><path d="M180.63,216.13c-.81.6-.91,1.87-.87,3.38-2.39,0-3.6.38-3.6,2s1.52,1.75,3.75,1.62a17.9,17.9,0,0,1-.27,4.1s0,0,0,.06c-2.59,0-3.87.33-3.87,2,0,1.35,1.25,1.69,3.14,1.66-.48,2.73-.34,4,1.55,3.69,1.67-.24,2.16-1.83,2.33-4l1.48-.19c.94-.13,2-.2,3-.28-.47,2.68-.32,3.91,1.55,3.64,1.66-.25,2.15-1.8,2.32-4,2.68-.28,4.82-.77,4.86-2a1.5,1.5,0,0,0-.26-1c-.62-.81-2.32-.59-4.46-.2v-1c0-1.1.09-2.32.17-3.56,2.72-.28,4.91-.74,4.94-2a1.45,1.45,0,0,0-.25-1c-.63-.82-2.35-.6-4.53-.19.05-2.32-.21-4.06-1.51-3.9a2.24,2.24,0,0,0-1.09.41c-.94.7-1,2.22-.88,4.09a19.64,19.64,0,0,1-3.82.26l-1.07,0c0-2.29-.21-4-1.51-3.86A2.24,2.24,0,0,0,180.63,216.13Zm2.46,6.67,1.57-.2c1.13-.15,2.36-.24,3.61-.33a17.47,17.47,0,0,1-.27,4c-.07.31-.11.51-.17.8a20.63,20.63,0,0,1-3.92.28l-1,0v-1C182.91,225.28,183,224.05,183.09,222.8Z" fill="#e47b7b"/><path d="M180.63,216.13c-.81.6-.91,1.87-.87,3.38-2.39,0-3.6.38-3.6,2s1.52,1.75,3.75,1.62a17.9,17.9,0,0,1-.27,4.1s0,0,0,.06c-2.59,0-3.87.33-3.87,2,0,1.35,1.25,1.69,3.14,1.66-.48,2.73-.34,4,1.55,3.69,1.67-.24,2.16-1.83,2.33-4l1.48-.19c.94-.13,2-.2,3-.28-.47,2.68-.32,3.91,1.55,3.64,1.66-.25,2.15-1.8,2.32-4,2.68-.28,4.82-.77,4.86-2a1.5,1.5,0,0,0-.26-1c-.62-.81-2.32-.59-4.46-.2v-1c0-1.1.09-2.32.17-3.56,2.72-.28,4.91-.74,4.94-2a1.45,1.45,0,0,0-.25-1c-.63-.82-2.35-.6-4.53-.19.05-2.32-.21-4.06-1.51-3.9a2.24,2.24,0,0,0-1.09.41c-.94.7-1,2.22-.88,4.09a19.64,19.64,0,0,1-3.82.26l-1.07,0c0-2.29-.21-4-1.51-3.86A2.24,2.24,0,0,0,180.63,216.13Zm2.46,6.67,1.57-.2c1.13-.15,2.36-.24,3.61-.33a17.47,17.47,0,0,1-.27,4c-.07.31-.11.51-.17.8a20.63,20.63,0,0,1-3.92.28l-1,0v-1C182.91,225.28,183,224.05,183.09,222.8Z" fill="#e47b7b"/><path d="M180.63,216.13c-.81.6-.91,1.87-.87,3.38-2.39,0-3.6.38-3.6,2s1.52,1.75,3.75,1.62a17.9,17.9,0,0,1-.27,4.1s0,0,0,.06c-2.59,0-3.87.33-3.87,2,0,1.35,1.25,1.69,3.14,1.66-.48,2.73-.34,4,1.55,3.69,1.67-.24,2.16-1.83,2.33-4l1.48-.19c.94-.13,2-.2,3-.28-.47,2.68-.32,3.91,1.55,3.64,1.66-.25,2.15-1.8,2.32-4,2.68-.28,4.82-.77,4.86-2a1.5,1.5,0,0,0-.26-1c-.62-.81-2.32-.59-4.46-.2v-1c0-1.1.09-2.32.17-3.56,2.72-.28,4.91-.74,4.94-2a1.45,1.45,0,0,0-.25-1c-.63-.82-2.35-.6-4.53-.19.05-2.32-.21-4.06-1.51-3.9a2.24,2.24,0,0,0-1.09.41c-.94.7-1,2.22-.88,4.09a19.64,19.64,0,0,1-3.82.26l-1.07,0c0-2.29-.21-4-1.51-3.86A2.24,2.24,0,0,0,180.63,216.13Zm2.46,6.67,1.57-.2c1.13-.15,2.36-.24,3.61-.33a17.47,17.47,0,0,1-.27,4c-.07.31-.11.51-.17.8a20.63,20.63,0,0,1-3.92.28l-1,0v-1C182.91,225.28,183,224.05,183.09,222.8Z" fill="#e47b7b"/></svg>